<svg xmlns="http://www.w3.org/2000/svg" viewBox="0 0 1600 900" role="img" aria-label="Sunny beach shoreline backdrop">
  <defs>
    <linearGradient id="sky" x1="0" y1="0" x2="0" y2="1">
      <stop offset="0%" stop-color="#42b8ff"/>
      <stop offset="38%" stop-color="#83d5ff"/>
      <stop offset="70%" stop-color="#b8ecff"/>
      <stop offset="100%" stop-color="#d7f6ff"/>
    </linearGradient>
    <linearGradient id="sea" x1="0" y1="0" x2="0" y2="1">
      <stop offset="0%" stop-color="#0078b8"/>
      <stop offset="28%" stop-color="#1094d0"/>
      <stop offset="58%" stop-color="#22a8dc"/>
      <stop offset="100%" stop-color="#5ec6f0"/>
    </linearGradient>
    <linearGradient id="deepWater" x1="0" y1="0" x2="1" y2="0">
      <stop offset="0%" stop-color="#0f75a8" stop-opacity="0.18"/>
      <stop offset="100%" stop-color="#0d4c72" stop-opacity="0.42"/>
    </linearGradient>
    <linearGradient id="sand" x1="0" y1="0" x2="1" y2="1">
      <stop offset="0%" stop-color="#efd3a5"/>
      <stop offset="44%" stop-color="#e8c68f"/>
      <stop offset="100%" stop-color="#d9b379"/>
    </linearGradient>
    <linearGradient id="foam" x1="0" y1="0" x2="1" y2="1">
      <stop offset="0%" stop-color="#ffffff" stop-opacity="0.96"/>
      <stop offset="100%" stop-color="#ddf7ff" stop-opacity="0.82"/>
    </linearGradient>
    <radialGradient id="sunGlow" cx="50%" cy="50%" r="50%">
      <stop offset="0%" stop-color="#fffced" stop-opacity="0.92"/>
      <stop offset="45%" stop-color="#fff1ca" stop-opacity="0.44"/>
      <stop offset="100%" stop-color="#fff1ca" stop-opacity="0"/>
    </radialGradient>
    <filter id="cloudBlur" x="-20%" y="-20%" width="140%" height="140%">
      <feGaussianBlur stdDeviation="14"/>
    </filter>
    <filter id="foamBlur" x="-10%" y="-10%" width="120%" height="120%">
      <feGaussianBlur stdDeviation="4"/>
    </filter>
  </defs>

  <rect width="1600" height="900" fill="url(#sky)"/>
  <circle cx="1360" cy="148" r="230" fill="url(#sunGlow)"/>

  <g filter="url(#cloudBlur)" opacity="0.9" fill="#ffffff">
    <ellipse cx="154" cy="114" rx="94" ry="24"/>
    <ellipse cx="874" cy="128" rx="54" ry="20"/>
    <ellipse cx="946" cy="122" rx="74" ry="32"/>
    <ellipse cx="1024" cy="112" rx="36" ry="18"/>
    <ellipse cx="1160" cy="148" rx="58" ry="24"/>
    <ellipse cx="1264" cy="136" rx="126" ry="40"/>
    <ellipse cx="1380" cy="118" rx="72" ry="30"/>
  </g>

  <rect y="310" width="1600" height="300" fill="url(#sea)"/>
  <rect y="310" width="1600" height="70" fill="#0472b1" opacity="0.48"/>
  <rect y="364" width="1600" height="8" fill="#dff7ff" opacity="0.82"/>

  <path
    d="M0 456 C194 426 388 410 584 418 C782 426 990 456 1204 430 C1366 410 1494 388 1600 386 L1600 622 L0 622 Z"
    fill="url(#deepWater)"
  />
  <path
    d="M0 470 C232 432 444 430 682 456 C874 476 1088 514 1316 470 C1432 448 1526 430 1600 430 L1600 508 C1480 530 1370 544 1236 550 C1020 558 856 526 648 520 C420 514 214 542 0 592 Z"
    fill="#9ee7ff"
    opacity="0.24"
  />

  <path
    d="M0 502 C226 486 430 516 626 506 C846 496 1052 428 1286 404 C1400 394 1508 388 1600 390 L1600 900 L0 900 Z"
    fill="url(#sand)"
  />

  <path
    d="M0 468 C176 438 372 454 586 472 C848 494 1022 438 1230 410 C1368 392 1496 386 1600 392 L1600 450 C1488 452 1382 464 1268 488 C1082 528 912 566 684 562 C450 558 232 526 0 540 Z"
    fill="url(#foam)"
    opacity="0.98"
    filter="url(#foamBlur)"
  />
  <path
    d="M0 498 C152 472 322 470 500 490 C742 516 948 540 1176 498 C1360 464 1490 446 1600 442 L1600 492 C1496 500 1404 524 1288 558 C1124 606 932 644 724 638 C494 632 256 592 0 602 Z"
    fill="#ffffff"
    opacity="0.92"
  />
  <path
    d="M0 534 C188 506 376 506 566 534 C744 562 914 586 1128 574 C1308 562 1458 532 1600 514 L1600 560 C1456 590 1300 626 1112 658 C944 686 768 706 576 702 C372 698 190 654 0 642 Z"
    fill="#ffffff"
    opacity="0.74"
  />
  <path
    d="M0 578 C182 550 342 568 502 612 C684 660 886 714 1120 706 C1330 698 1484 640 1600 612 L1600 660 C1500 692 1360 746 1196 788 C1024 832 812 854 598 844 C382 834 194 776 0 722 Z"
    fill="#fff8ea"
    opacity="0.36"
  />

  <path
    d="M1004 0 L1600 0 L1600 352 C1508 372 1392 400 1268 454 C1116 522 1028 606 952 900 L840 900 C920 592 988 360 1004 0 Z"
    fill="#fff3d4"
    opacity="0.12"
  />
  <path
    d="M0 642 C236 624 414 698 578 744 C742 790 924 812 1132 796 C1320 780 1456 728 1600 664 L1600 900 L0 900 Z"
    fill="#d39d60"
    opacity="0.16"
  />
</svg>
